<?xml version="1.0" standalone="no"?>
<!DOCTYPE svg PUBLIC "-//W3C//DTD SVG 20010904//EN"
 "http://www.w3.org/TR/2001/REC-SVG-20010904/DTD/svg10.dtd">
<svg version="1.0" xmlns="http://www.w3.org/2000/svg"
 width="2940.000000pt" height="1960.000000pt" viewBox="0 0 2940.000000 1960.000000"
 preserveAspectRatio="xMidYMid meet">
<metadata>
Created by potrace 1.16, written by Peter Selinger 2001-2019
</metadata>
<g transform="translate(0.000000,1960.000000) scale(0.100000,-0.100000)"
fill="#000000" stroke="none">
<path d="M10633 18290 c-46 -21 -281 -159 -287 -169 -2 -3 10 -6 27 -7 45 -1
138 -47 359 -177 101 -59 194 -112 358 -202 58 -32 125 -70 150 -85 25 -15
140 -81 255 -145 116 -65 315 -178 442 -252 128 -73 235 -133 238 -133 3 0 35
-18 71 -40 36 -22 67 -40 69 -40 7 0 318 -181 358 -208 96 -67 179 -184 222
-317 9 -27 21 -104 26 -170 12 -144 2 -1198 -12 -1268 -5 -27 -16 -56 -25 -65
-23 -23 -2 -27 38 -6 64 32 223 128 259 156 20 15 46 48 58 74 22 45 22 48 19
732 l-3 687 -24 60 c-39 98 -96 188 -163 257 -55 57 -101 86 -363 235 -165 93
-322 183 -350 198 -169 93 -237 132 -364 204 -78 45 -144 81 -146 81 -1 0 -33
19 -71 41 -37 23 -187 109 -333 192 -146 83 -349 198 -451 255 -164 93 -252
132 -300 132 -8 0 -34 -9 -57 -20z"/>
<path d="M20134 17250 c-24 -9 -335 -188 -346 -199 -4 -3 10 -5 31 -3 41 4 67
-9 231 -113 47 -30 91 -55 98 -55 6 0 12 -4 12 -10 0 -5 4 -10 10 -10 5 0 55
-27 111 -61 56 -34 127 -75 158 -92 31 -17 88 -49 126 -72 39 -24 95 -56 125
-73 55 -30 251 -143 490 -282 69 -40 160 -93 203 -117 43 -24 110 -63 150 -87
40 -24 146 -86 237 -138 91 -53 210 -121 265 -153 103 -59 127 -73 205 -117
122 -68 409 -234 466 -269 35 -21 66 -39 69 -39 3 0 33 -17 67 -38 35 -21 164
-96 288 -167 124 -71 312 -179 417 -242 106 -62 194 -113 196 -113 2 0 53 -29
112 -65 59 -35 116 -67 126 -70 11 -4 19 -11 19 -16 0 -5 5 -9 10 -9 6 0 51
-24 101 -52 109 -63 145 -83 224 -128 33 -18 98 -57 145 -85 47 -29 100 -60
119 -70 19 -9 39 -21 45 -26 6 -6 56 -35 111 -66 55 -30 141 -79 190 -108 145
-85 420 -243 555 -318 236 -132 327 -210 354 -306 16 -60 30 -358 31 -671 1
-838 -19 -4938 -24 -4982 -5 -36 -4 -58 2 -58 15 0 292 166 321 192 l24 23 6
1375 c10 2301 9 4219 -3 4277 -25 127 -91 200 -280 308 -188 108 -473 272
-576 332 -66 38 -347 200 -625 360 -278 160 -561 324 -630 364 -69 39 -183
106 -255 147 -71 41 -209 120 -305 177 -96 56 -195 113 -220 127 -25 13 -106
60 -180 103 -74 43 -256 148 -405 233 -148 86 -322 186 -385 222 -63 37 -207
120 -320 185 -113 65 -385 222 -605 350 -1015 589 -1238 715 -1260 714 -5 0
-19 -4 -31 -9z"/>
<path d="M14065 16336 c-11 -7 -42 -25 -68 -40 l-49 -28 134 -72 c73 -40 178
-100 233 -133 55 -33 208 -122 340 -198 132 -76 254 -146 270 -156 17 -10 62
-35 100 -57 39 -22 153 -88 255 -147 102 -59 345 -199 540 -310 405 -231 551
-316 700 -405 58 -35 134 -80 170 -100 36 -20 126 -72 200 -115 74 -43 164
-95 200 -115 284 -163 730 -421 795 -460 44 -26 265 -153 490 -282 408 -233
653 -375 710 -409 17 -10 46 -27 66 -38 20 -11 130 -75 245 -142 115 -68 238
-139 274 -159 36 -20 92 -53 125 -72 129 -75 502 -292 535 -310 154 -87 233
-159 243 -220 3 -18 -8 -103 -24 -188 -52 -287 -79 -434 -104 -560 -13 -69
-33 -177 -45 -240 -12 -63 -39 -203 -61 -310 -40 -203 -86 -446 -164 -860 -25
-135 -79 -414 -120 -620 -41 -206 -93 -472 -115 -590 -23 -118 -72 -377 -111
-575 -38 -198 -83 -432 -100 -520 -17 -88 -43 -222 -58 -297 l-27 -138 65 36
c36 20 71 43 77 52 13 17 22 59 49 217 9 50 40 214 70 365 30 151 75 383 100
515 25 132 57 299 71 370 13 72 31 164 39 205 7 41 52 271 99 510 84 430 129
665 187 975 17 88 39 201 49 250 11 50 28 140 40 200 11 61 29 157 40 215 11
58 61 308 110 555 50 248 90 468 90 488 0 55 -22 98 -72 142 -25 22 -225 143
-444 269 -220 126 -451 260 -514 296 -63 37 -171 99 -240 137 -69 39 -332 191
-585 338 -253 147 -512 297 -575 332 -63 36 -135 77 -160 93 -25 15 -169 99
-320 186 -327 187 -654 376 -875 504 -88 51 -326 188 -530 305 -203 116 -478
275 -610 352 -132 77 -341 199 -465 270 -311 179 -792 457 -995 576 -126 73
-233 127 -250 126 -5 0 -19 -6 -30 -13z"/>
<path d="M11725 15388 c-28 -29 -72 -73 -98 -96 -82 -74 -42 -67 100 16 79 47
133 85 133 95 0 4 -74 37 -83 37 -1 0 -25 -24 -52 -52z"/>
<path d="M10949 15146 c-38 -26 -319 -189 -409 -239 -30 -17 -116 -66 -190
-110 -261 -154 -306 -180 -465 -269 -88 -50 -196 -112 -240 -138 -44 -27 -96
-57 -115 -68 -19 -11 -107 -61 -195 -112 -323 -187 -563 -325 -680 -392 -239
-135 -484 -283 -487 -293 -2 -5 -1 -840 2 -1854 4 -1330 8 -1845 16 -1848 6
-2 129 -71 273 -154 145 -82 267 -149 272 -147 6 2 9 720 9 1844 0 1472 2
1843 12 1851 7 6 60 36 118 68 209 114 390 218 455 260 28 18 71 44 98 59 109
60 136 76 215 125 46 28 87 51 91 51 4 0 25 13 47 30 21 16 42 30 45 30 4 0
37 18 73 40 36 22 69 40 73 40 3 0 14 6 22 14 9 7 50 31 91 52 41 21 77 42 78
46 2 5 7 8 11 8 10 0 209 111 297 166 39 24 74 44 77 44 3 0 47 25 97 55 50
30 93 55 95 55 4 0 316 182 380 221 17 10 41 24 55 31 14 7 41 22 60 34 161
98 228 141 245 157 13 12 30 17 48 14 20 -2 27 1 27 12 0 10 -76 61 -201 136
-209 124 -350 205 -359 204 -3 0 -21 -11 -41 -23z"/>
<path d="M5640 14594 c-129 -23 -240 -69 -360 -149 -260 -174 -464 -416 -628
-750 -59 -119 -112 -263 -112 -305 0 -35 -17 -50 -58 -50 -169 0 -437 -172
-616 -395 -180 -224 -286 -435 -352 -705 -8 -30 -17 -115 -21 -189 l-6 -133
-56 -36 c-145 -92 -256 -220 -337 -387 -71 -146 -96 -242 -97 -370 0 -88 3
-108 25 -155 15 -30 37 -67 50 -82 21 -25 369 -240 376 -233 2 2 -8 28 -22 58
-55 121 -54 250 3 419 39 115 57 150 124 250 73 108 153 190 253 259 l79 54
-3 75 c-9 205 87 508 238 754 193 315 502 559 740 585 53 6 55 7 60 41 13 80
127 346 199 465 23 37 41 69 41 71 0 9 102 149 161 219 260 312 590 494 854
471 55 -5 66 -4 50 5 -322 183 -382 209 -490 214 -38 2 -81 2 -95 -1z"/>
<path d="M6540 14067 c11 -24 26 -70 34 -102 9 -32 18 -60 21 -63 3 -3 22 2
42 11 52 22 151 31 188 17 41 -15 21 2 -42 37 -28 15 -94 54 -145 86 -52 31
-99 57 -106 57 -7 0 -4 -16 8 -43z"/>
<path d="M14046 13908 c-17 -79 -26 -131 -26 -146 0 -15 85 -82 103 -82 4 0 7
12 7 26 0 14 4 33 9 42 5 9 10 41 12 70 l4 52 -52 30 -53 30 -4 -22z"/>
<path d="M14300 13727 c-6 -28 -14 -72 -16 -97 l-6 -45 114 -72 c62 -39 142
-88 178 -109 36 -20 184 -110 330 -199 624 -382 1407 -855 1415 -855 3 0 4 3
3 8 -1 4 4 47 12 96 9 59 10 91 4 93 -15 5 -241 139 -369 218 -60 38 -193 119
-295 180 -195 118 -583 355 -935 570 -115 70 -244 148 -285 173 -41 25 -89 55
-107 68 l-31 24 -12 -53z"/>
<path d="M14221 13298 c-7 -40 -15 -83 -18 -94 -4 -19 18 -36 164 -126 196
-123 315 -195 508 -311 172 -103 580 -350 735 -446 92 -56 116 -67 118 -53 1
9 10 50 18 90 9 40 14 75 12 77 -3 3 -43 28 -89 56 -274 168 -566 345 -714
434 -93 56 -231 139 -305 185 -210 130 -363 225 -391 243 l-26 17 -12 -72z"/>
<path d="M22345 13103 c13 -12 163 -101 605 -356 195 -112 373 -215 395 -228
168 -97 456 -269 585 -349 85 -53 161 -99 168 -104 6 -4 12 -5 12 -2 0 14
-561 353 -1045 631 -170 98 -389 224 -485 280 -181 105 -252 144 -235 128z"/>
<path d="M16696 12897 c-67 -37 -78 -52 -44 -60 22 -6 299 -160 463 -257 44
-26 116 -67 160 -91 44 -24 136 -78 205 -119 69 -42 136 -83 150 -91 59 -34
107 -80 129 -125 24 -47 24 -53 28 -378 3 -243 7 -330 15 -328 14 4 106 78
131 105 15 17 17 47 17 301 0 324 -5 355 -73 438 -46 55 -97 88 -497 311 -118
66 -271 152 -340 192 -156 91 -244 135 -267 135 -10 0 -45 -15 -77 -33z"/>
<path d="M22070 12896 c0 -2 24 -18 53 -34 362 -207 1672 -971 1717 -1002 36
-24 50 -32 50 -27 0 7 -110 77 -240 153 -63 36 -140 81 -170 99 -264 155 -889
520 -945 552 -38 22 -142 82 -230 133 -173 99 -235 133 -235 126z"/>
<path d="M16434 11522 c-4 -15 -13 -38 -20 -52 -20 -36 -74 -160 -77 -173 -1
-7 -4 -14 -7 -17 -8 -8 -50 -114 -50 -126 0 -6 -11 -33 -24 -61 -14 -27 -32
-72 -41 -100 -15 -47 -15 -51 5 -97 24 -57 25 -62 6 -47 -8 7 -18 26 -21 43
-6 27 -8 28 -20 11 -23 -33 -76 -216 -88 -301 -12 -93 -5 -165 58 -562 23
-142 23 -298 2 -530 -26 -275 -24 -490 7 -730 14 -107 28 -238 32 -290 l7 -94
-49 37 c-54 42 -132 82 -142 73 -9 -10 29 -44 114 -100 63 -41 80 -57 82 -79
3 -24 -2 -30 -40 -46 -24 -10 -81 -42 -127 -70 -46 -28 -90 -51 -97 -51 -8 0
-32 7 -54 16 -23 9 -44 14 -47 10 -3 -3 -14 4 -24 16 -11 11 -19 18 -19 14 0
-4 -9 -2 -19 4 -14 7 -21 6 -25 -3 -4 -6 -4 -2 -2 10 3 18 -4 26 -38 43 -23
11 -53 20 -65 20 -20 0 -22 -2 -11 -15 8 -9 21 -13 34 -10 14 4 17 3 8 -3 -16
-11 -2 -23 88 -78 57 -34 72 -39 119 -37 l54 2 -23 -24 c-13 -14 -44 -32 -69
-41 -53 -18 -49 -17 -169 -83 -50 -28 -102 -53 -115 -56 -18 -5 -47 8 -115 49
-86 53 -192 102 -192 90 0 -16 114 -95 220 -151 25 -13 53 -29 62 -35 13 -10
21 -9 35 3 10 9 34 22 53 29 51 19 166 87 203 119 18 16 43 32 57 36 14 4 43
17 65 30 22 13 67 38 100 56 33 17 67 38 76 45 8 8 19 14 24 14 5 0 17 7 27
17 10 9 21 13 25 9 8 -8 27 -276 19 -283 -2 -3 -35 15 -73 39 -77 49 -116 68
-141 68 -13 0 -12 -5 8 -21 47 -38 169 -119 179 -119 6 0 15 -9 20 -19 11 -20
35 -328 29 -374 l-3 -28 -22 20 c-32 30 -121 83 -131 77 -4 -2 -14 0 -22 6
-12 8 -11 8 5 3 11 -3 16 -3 12 2 -5 4 -29 13 -55 19 -34 9 -42 9 -28 0 11 -6
33 -22 50 -36 40 -33 94 -70 100 -70 3 0 25 -14 50 -30 43 -29 45 -32 50 -93
4 -34 7 -116 9 -182 2 -140 3 -140 -98 -74 -62 41 -101 56 -112 45 -15 -15 93
-91 227 -160 83 -42 157 -85 300 -172 171 -105 211 -126 239 -125 104 4 146
15 134 35 -3 6 -1 6 8 -1 15 -15 33 -17 24 -4 -7 12 32 34 45 26 6 -4 10 -3 9
2 -3 18 2 27 9 16 5 -8 14 -6 32 8 l25 20 -25 -6 c-24 -7 -24 -7 -5 9 16 12
17 15 4 16 -21 0 -81 -45 -71 -54 4 -5 0 -7 -8 -6 -22 4 -80 -23 -80 -36 0
-37 -217 55 -335 141 -33 25 -111 70 -172 101 -62 31 -113 58 -113 60 0 3 9 0
21 -6 42 -23 98 11 170 103 28 35 39 58 39 83 0 32 -2 34 -35 34 -33 0 -35 2
-35 35 0 53 21 53 95 -2 76 -56 71 -42 80 -268 4 -107 10 -162 18 -167 7 -5
29 -13 49 -20 77 -23 258 71 258 135 0 22 -7 28 -37 36 -21 6 -45 11 -54 11
-9 0 -22 7 -29 15 -15 18 -5 65 14 65 20 0 93 -35 156 -75 172 -108 240 -143
240 -124 0 5 5 9 11 9 6 0 22 8 35 19 l24 19 -26 5 c-16 3 -28 -1 -31 -9 -7
-18 -27 -18 -43 1 -19 23 -99 65 -93 49 3 -8 13 -14 22 -15 9 0 11 -3 5 -5 -7
-3 -27 2 -45 10 -20 8 -27 15 -16 15 9 1 17 6 17 12 0 6 -9 8 -22 4 -16 -4
-19 -3 -10 3 10 7 -6 20 -60 49 -40 23 -91 48 -113 57 -50 21 -55 29 -55 96 0
74 8 97 34 104 33 8 82 64 69 77 -8 8 -17 6 -34 -10 -22 -21 -57 -36 -64 -29
-2 2 -1 36 2 76 5 58 9 72 22 72 10 0 22 -5 28 -11 15 -15 63 -20 63 -7 0 5
10 7 23 3 12 -3 -5 10 -38 29 -33 20 -66 36 -72 36 -9 0 -13 23 -13 82 l0 81
53 49 52 49 -35 -3 c-20 -2 -34 -8 -33 -15 1 -6 -4 -17 -12 -23 -13 -11 -15
-2 -15 61 0 92 11 113 39 80 11 -12 25 -20 30 -16 6 3 11 2 11 -4 0 -6 6 -8
14 -5 7 3 36 -2 63 -11 59 -19 77 -14 151 44 49 39 64 61 42 61 -5 0 -10 -6
-10 -14 0 -7 -12 -22 -27 -32 -16 -10 -34 -24 -41 -31 -19 -19 -28 -16 -29 9
-2 17 0 19 7 8 5 -8 12 -11 17 -7 4 5 1 12 -7 17 -10 6 -20 3 -33 -11 -22 -24
-62 -20 -136 12 -24 10 -49 19 -57 19 -7 0 -16 5 -19 10 -3 6 4 115 17 243 20
202 23 282 22 617 -1 281 -6 422 -17 520 -33 276 -31 341 10 580 9 52 17 102
17 110 1 9 5 20 9 27 4 6 8 23 9 37 1 14 5 26 8 26 12 0 41 61 34 72 -4 6 -3
8 4 5 5 -4 29 16 52 43 38 45 127 135 202 203 15 14 24 28 20 33 -4 4 -2 4 4
1 23 -13 204 208 280 342 24 44 43 68 72 94 12 11 22 27 22 35 0 9 3 12 6 9 4
-4 17 12 28 36 12 23 30 55 40 70 20 30 15 47 -7 28 -17 -13 -48 -4 -41 12 5
15 -5 29 -33 45 -36 19 -66 14 -88 -15 -11 -15 -27 -35 -37 -44 -9 -10 -14
-20 -11 -23 4 -3 1 -6 -5 -6 -7 0 -12 -6 -12 -14 0 -8 -9 -18 -20 -21 -11 -3
-20 -13 -20 -21 0 -8 -19 -34 -42 -57 -23 -23 -66 -71 -96 -107 -31 -36 -65
-75 -77 -88 -51 -52 -177 -134 -292 -191 l-123 -61 -134 0 c-176 0 -336 37
-239 55 55 10 71 21 78 56 4 17 23 58 42 91 33 57 34 60 17 79 -19 21 -39 26
-28 7 5 -10 4 -10 -5 -2 -19 17 -18 65 2 78 23 15 47 -1 71 -48 23 -47 33 -38
53 49 8 37 33 101 54 143 39 76 52 153 29 167 -5 3 -56 8 -112 11 -57 3 -113
7 -125 10 -22 4 -27 22 -10 35 9 6 67 165 67 182 0 4 -4 5 -10 2 -6 -3 -10 4
-10 17 0 31 -9 41 -47 54 -24 9 -33 9 -37 0 -2 -6 -5 -4 -5 4 -1 9 -10 16 -21
17 -14 1 -22 -6 -26 -25z m140 -3589 c4 -49 8 -105 10 -125 5 -44 -4 -47 -53
-17 l-33 20 4 92 c4 103 9 117 43 117 22 0 23 -4 29 -87z m-30 -188 c22 -9 38
-24 41 -38 14 -61 26 -164 32 -271 l6 -118 -29 16 c-16 9 -49 31 -74 49 -40
30 -45 38 -48 78 -4 59 10 94 45 111 29 14 62 62 50 74 -4 4 -21 -6 -38 -22
-25 -24 -32 -26 -40 -14 -5 8 -8 38 -5 65 3 28 6 58 6 68 0 21 7 21 54 2z"/>
<path d="M17873 11267 c-102 -88 -102 -87 -91 -183 8 -69 7 -87 -7 -114 -16
-32 -16 -32 7 -25 34 11 68 30 115 64 51 37 55 55 51 208 l-3 113 -72 -63z"/>
<path d="M12630 10452 c0 -21 123 -106 225 -154 17 -8 29 -20 28 -26 -4 -18 2
-16 94 29 46 23 94 54 107 70 13 15 27 25 30 22 3 -4 6 -1 6 5 0 21 -41 13
-98 -21 -117 -68 -105 -68 -240 12 -112 66 -152 83 -152 63z"/>
<path d="M12286 10228 c5 -8 2 -9 -11 -4 -15 5 -16 4 -6 -8 15 -18 133 -90
219 -133 l62 -31 96 52 c52 29 108 64 124 78 16 14 31 23 34 21 3 -3 4 4 3 16
-2 32 6 35 -164 -62 -34 -19 -71 -38 -82 -42 -20 -6 -73 14 -121 46 -84 56
-126 79 -142 79 -12 0 -16 -4 -12 -12z"/>
<path d="M13000 10235 c0 -22 179 -136 233 -149 15 -4 27 -13 27 -21 0 -19 34
-19 50 -1 6 8 33 22 58 31 60 20 117 68 108 90 -5 14 -11 13 -48 -10 -96 -59
-148 -80 -166 -68 -102 69 -262 147 -262 128z"/>
<path d="M6525 10121 c-6 -5 -71 -44 -144 -86 -74 -42 -145 -84 -157 -93 l-21
-17 21 -10 c12 -6 30 -28 42 -50 l20 -40 73 -3 72 -3 -6 46 c-4 25 -3 45 1 45
11 0 164 -88 217 -124 36 -25 38 -29 34 -69 -5 -45 11 -74 76 -144 30 -32 70
-43 82 -23 16 26 42 6 85 -66 25 -41 62 -103 82 -137 21 -34 38 -69 38 -77 0
-8 -14 -23 -30 -32 -36 -21 -37 -40 -7 -123 19 -52 29 -65 81 -100 l58 -40 -7
-135 c-4 -74 -9 -137 -11 -139 -2 -3 -20 3 -39 12 -47 23 -62 21 -70 -5 -4
-13 -13 -37 -22 -53 -15 -30 -14 -32 16 -77 17 -25 31 -51 31 -57 0 -6 5 -11
11 -11 14 0 172 89 244 137 27 18 55 33 62 33 24 0 23 20 -2 61 -15 22 -24 46
-22 53 3 7 22 21 44 31 21 10 51 27 66 37 l28 20 -2 122 c-2 165 -6 186 -33
186 -12 0 -34 12 -48 28 -26 27 -83 176 -73 192 3 5 19 11 35 15 17 4 30 10
30 13 0 12 -44 93 -92 173 -26 42 -53 93 -62 113 -17 42 -20 42 -53 17 -33
-27 -56 -15 -122 60 -51 57 -52 60 -45 106 5 40 3 51 -13 64 -30 26 -233 138
-250 139 -7 0 -32 -14 -57 -31 -58 -38 -83 -35 -109 14 -19 37 -35 45 -52 28z"/>
<path d="M11894 10028 c-4 -6 4 -20 20 -33 33 -27 332 -202 393 -231 42 -20
109 -22 97 -3 -3 5 4 9 15 9 22 0 141 68 141 80 0 4 11 11 25 14 14 4 23 11
20 16 -3 6 4 10 17 10 23 1 23 1 3 17 -16 13 -17 15 -2 10 9 -4 17 -2 17 4 0
12 -51 3 -60 -10 -6 -8 -60 -41 -145 -86 l-60 -33 -50 16 c-27 9 -54 21 -60
27 -5 7 -48 34 -95 60 -47 27 -122 70 -166 97 -87 51 -99 55 -110 36z"/>
<path d="M12632 10019 c6 -19 127 -100 215 -144 72 -36 74 -37 112 -22 78 32
241 145 241 168 0 21 -39 5 -134 -53 -134 -83 -154 -84 -287 -6 -103 61 -155
81 -147 57z"/>
<path d="M13382 10008 c11 -33 286 -187 299 -166 3 5 28 20 55 32 27 13 74 40
104 60 l55 36 -38 0 c-27 0 -58 -12 -104 -40 -74 -44 -90 -47 -135 -24 -16 9
-27 11 -24 5 4 -7 1 -8 -8 -5 -9 3 -16 10 -16 14 0 13 -78 62 -89 56 -5 -4
-13 0 -18 7 -17 29 -89 51 -81 25z"/>
<path d="M11535 9800 c10 -11 55 -43 99 -71 45 -28 106 -67 136 -86 30 -19
138 -80 239 -134 140 -75 187 -97 197 -88 7 6 46 26 85 45 95 46 164 97 166
123 1 12 0 21 -2 21 -12 0 -55 -25 -55 -32 0 -4 -4 -8 -10 -8 -13 0 -155 -87
-170 -104 -14 -18 -28 -13 -97 31 -29 18 -55 33 -59 33 -3 0 -50 26 -103 58
-53 32 -115 63 -139 70 -23 7 -40 17 -38 21 3 4 -35 32 -84 62 -126 76 -132
79 -159 79 -23 0 -24 -1 -6 -20z"/>
<path d="M13030 9801 c0 -30 139 -125 201 -138 16 -3 31 -14 34 -24 4 -11 12
-19 20 -19 20 0 195 96 250 138 88 67 67 85 -31 26 -32 -19 -94 -54 -136 -76
l-78 -40 -48 31 c-27 17 -53 31 -58 31 -6 0 -41 20 -78 45 -38 25 -71 45 -72
45 -2 0 -4 -9 -4 -19z"/>
<path d="M13760 9781 c19 -17 60 -44 90 -61 30 -17 82 -46 114 -64 l59 -33 62
22 c57 20 164 89 165 108 1 17 -38 4 -121 -38 -48 -25 -93 -45 -100 -45 -7 0
-35 15 -63 34 -76 50 -155 88 -168 80 -6 -4 -8 -3 -5 3 8 12 -14 23 -46 23
-19 0 -17 -4 13 -29z"/>
<path d="M12475 9699 c-4 -5 1 -19 10 -29 16 -17 205 -131 350 -210 32 -18 67
-42 76 -54 l18 -21 20 22 c12 12 61 42 109 68 111 57 192 132 131 120 -12 -3
-52 -22 -88 -44 -36 -21 -91 -52 -122 -69 -54 -29 -58 -30 -80 -14 -13 9 -91
56 -174 104 -82 47 -169 98 -191 112 -47 29 -50 30 -59 15z"/>
<path d="M11690 9591 c-23 -6 -139 -68 -150 -80 -3 -3 -47 -28 -98 -54 l-93
-49 -67 43 c-37 23 -78 50 -92 59 -38 26 -91 52 -96 47 -14 -14 21 -47 113
-108 58 -38 110 -70 116 -70 7 -1 23 -3 37 -4 14 -2 42 8 63 21 21 14 48 29
60 35 22 9 138 74 215 119 61 36 57 58 -8 41z"/>
<path d="M13400 9569 c19 -17 80 -55 135 -86 55 -31 106 -63 113 -72 10 -12
16 -13 30 -4 9 7 53 30 97 52 100 50 172 97 186 122 18 35 -22 21 -133 -45
-166 -98 -149 -96 -253 -31 -127 78 -161 95 -187 95 -21 -1 -21 -3 12 -31z"/>
<path d="M14130 9580 c0 -18 137 -105 275 -175 11 -6 163 72 205 105 l25 20
-37 0 c-24 0 -59 -13 -107 -40 -39 -22 -74 -40 -79 -40 -5 0 -64 32 -131 70
-117 68 -151 81 -151 60z"/>
<path d="M6331 9519 c-55 -39 -80 -95 -81 -174 0 -140 74 -305 190 -425 80
-82 137 -116 213 -126 107 -15 187 68 187 193 0 39 -6 51 -67 122 -38 43 -83
104 -102 135 -38 63 -81 175 -81 210 0 28 -22 49 -80 75 -68 31 -128 28 -179
-10z"/>
<path d="M20893 9384 c-89 -47 -153 -87 -153 -96 0 -4 12 -11 28 -14 15 -4 29
-10 32 -13 3 -3 30 -19 60 -35 60 -31 230 -129 428 -247 70 -41 217 -126 327
-189 218 -123 304 -173 525 -302 80 -47 165 -96 190 -110 25 -13 83 -47 130
-74 47 -28 150 -88 230 -133 317 -182 358 -206 435 -251 44 -26 98 -57 120
-69 22 -12 54 -30 70 -40 17 -10 117 -68 223 -130 106 -61 205 -119 220 -129
15 -10 106 -63 202 -117 394 -220 517 -297 560 -349 l25 -30 1 -1801 c1 -990
5 -1800 9 -1799 4 0 49 27 101 60 69 44 95 65 98 84 3 14 6 817 8 1785 l3
1760 -31 55 c-32 58 -86 99 -257 196 -39 23 -196 113 -347 199 -151 87 -304
174 -340 195 -36 20 -132 76 -215 125 -82 49 -195 114 -250 145 -55 32 -129
74 -165 95 -36 21 -81 46 -100 57 -19 11 -190 110 -380 221 -190 110 -365 211
-390 225 -25 14 -151 87 -280 162 -129 76 -289 168 -355 205 -66 37 -219 125
-340 195 -121 70 -250 143 -287 163 l-66 37 -69 -36z"/>
<path d="M11995 9342 c-155 -93 -233 -132 -263 -132 -29 0 -188 87 -235 128
-16 14 -19 14 -27 2 -6 -8 -10 -18 -10 -22 0 -9 154 -110 209 -137 25 -11 55
-21 68 -21 20 0 104 38 153 70 8 5 54 32 101 60 47 27 96 61 109 75 l23 25
-24 0 c-13 0 -60 -22 -104 -48z"/>
<path d="M12286 9376 c8 -21 72 -69 149 -110 39 -21 77 -45 86 -52 26 -23 53
-16 162 45 123 68 167 105 150 122 -9 9 -39 -5 -122 -55 -129 -78 -158 -86
-198 -58 -44 30 -209 122 -222 122 -6 0 -8 -6 -5 -14z"/>
<path d="M13776 9365 c-6 -15 55 -58 177 -125 42 -23 77 -46 77 -51 0 -5 9 -9
20 -9 11 0 20 4 20 9 0 4 54 39 120 76 116 66 160 99 147 111 -12 12 -53 -6
-162 -70 -60 -36 -116 -66 -124 -66 -7 0 -53 23 -102 50 -90 51 -104 56 -112
43 -2 -5 -2 -3 -1 4 6 23 -51 50 -60 28z"/>
<path d="M14555 9319 c93 -61 181 -109 201 -109 8 0 14 -7 14 -15 0 -17 35
-21 45 -5 4 6 27 21 53 35 47 24 122 85 122 98 0 14 -37 0 -100 -37 -36 -22
-75 -48 -86 -58 -17 -15 -23 -16 -27 -5 -8 22 -216 137 -261 143 l-41 6 80
-53z"/>
<path d="M13925 9170 c-8 -12 -239 -150 -252 -150 -5 0 -14 5 -21 12 -32 32
-250 144 -260 133 -16 -16 165 -134 232 -151 15 -3 30 -13 33 -20 3 -9 14 -12
32 -8 38 9 203 97 208 111 3 7 11 13 18 13 19 0 48 38 42 55 -7 17 -23 20 -32
5z"/>
<path d="M14694 9161 c-28 -9 -80 -35 -115 -58 -81 -51 -144 -83 -163 -83 -8
0 -34 13 -58 29 -72 48 -197 111 -221 111 -21 0 -20 -1 8 -25 17 -14 77 -53
135 -86 58 -33 112 -65 121 -71 19 -13 14 -14 134 50 80 44 238 153 218 151
-4 0 -31 -8 -59 -18z"/>
<path d="M12425 9157 c-11 -8 -51 -31 -90 -52 -38 -21 -88 -49 -109 -63 -22
-14 -58 -33 -80 -43 l-41 -18 -75 41 c-41 23 -99 56 -128 75 -29 18 -55 33
-57 33 -3 0 -5 -9 -5 -20 0 -21 80 -79 193 -137 51 -27 63 -30 98 -22 22 5 73
28 112 51 40 22 107 61 150 85 54 31 77 50 77 64 0 22 -17 25 -45 6z"/>
<path d="M14895 9124 c17 -13 53 -37 80 -53 28 -15 79 -45 115 -65 50 -29 68
-35 85 -28 104 48 158 79 182 104 l28 31 -35 -7 c-19 -3 -60 -21 -90 -40 -97
-59 -94 -60 -249 33 -54 33 -95 51 -115 51 l-31 -1 30 -25z"/>
<path d="M12812 8947 c-6 -7 -38 -26 -71 -42 -33 -15 -58 -32 -55 -37 3 -5 2
-7 -3 -6 -7 3 -64 -27 -156 -79 -38 -22 -63 -14 -181 57 -63 39 -120 70 -125
70 -46 0 63 -88 199 -162 74 -40 82 -37 250 67 20 13 58 34 85 49 68 35 96 61
89 80 -7 19 -18 20 -32 3z"/>
<path d="M13032 8949 c11 -35 199 -155 264 -169 30 -7 46 -2 112 32 42 22 90
48 107 56 37 20 89 76 75 80 -11 4 -45 -12 -180 -86 -41 -23 -86 -42 -99 -42
-13 0 -72 29 -130 64 -116 69 -156 87 -149 65z"/>
<path d="M14289 8937 c-60 -40 -218 -127 -232 -127 -7 0 -21 6 -32 13 -18 13
-107 62 -194 108 -32 17 -51 17 -51 0 0 -14 82 -67 193 -124 59 -31 107 -52
107 -47 0 5 41 30 91 57 95 50 183 118 173 134 -8 14 -18 11 -55 -14z"/>
<path d="M15014 8924 c-27 -14 -60 -34 -74 -44 -40 -28 -128 -70 -147 -70 -9
0 -64 27 -121 61 -57 33 -121 63 -141 66 l-36 4 23 -20 c31 -27 205 -131 220
-131 6 0 18 -10 26 -21 14 -21 16 -21 49 -5 19 9 38 16 42 16 16 0 201 120
225 145 22 24 23 25 3 25 -11 0 -42 -12 -69 -26z"/>
<path d="M15250 8935 c0 -12 41 -43 125 -94 114 -70 175 -98 183 -85 4 6 29
21 56 33 53 23 136 86 136 102 0 15 -36 1 -110 -41 -104 -60 -98 -60 -220 14
-98 60 -170 90 -170 71z"/>
<path d="M13430 8717 c0 -19 20 -35 103 -85 153 -91 145 -89 214 -56 95 45
187 102 218 134 25 26 26 30 9 30 -10 0 -29 -6 -40 -13 -123 -70 -196 -107
-231 -116 -46 -13 -34 -18 -224 106 -44 29 -49 29 -49 0z"/>
<path d="M14645 8709 c-25 -16 -79 -46 -118 -65 -40 -20 -80 -43 -90 -52 -12
-10 -21 -13 -25 -6 -8 11 -97 74 -106 74 -3 0 -32 16 -65 35 -65 38 -114 48
-90 18 18 -22 128 -91 225 -143 56 -30 80 -38 82 -28 1 7 44 36 94 63 108 59
180 118 156 128 -9 3 -36 -7 -63 -24z"/>
<path d="M15625 8705 c35 -29 192 -125 250 -152 l40 -19 77 39 c43 21 87 50
98 64 42 54 16 57 -57 8 -29 -19 -56 -35 -61 -35 -5 0 -15 -7 -22 -15 -20 -24
-40 -18 -140 41 -135 80 -251 124 -185 69z"/>
<path d="M14914 8691 c21 -17 74 -51 119 -77 45 -26 92 -57 105 -68 18 -16 26
-18 40 -9 9 7 57 33 107 59 49 25 101 55 115 66 14 10 35 27 48 36 l23 17 -33
1 c-31 1 -103 -35 -239 -122 -35 -22 -36 -22 -52 -3 -15 16 -45 35 -180 106
-23 12 -53 22 -66 23 -22 0 -21 -2 13 -29z"/>
<path d="M12585 8680 c-3 -5 -4 -14 -1 -18 3 -5 67 -44 143 -87 159 -90 296
-169 403 -233 41 -25 90 -53 108 -64 18 -10 102 -58 185 -107 84 -48 188 -107
232 -131 44 -23 96 -52 115 -65 68 -44 211 -125 221 -125 30 0 369 202 369
219 0 19 -33 20 -58 3 -55 -38 -298 -172 -311 -172 -15 0 -72 32 -478 267
-155 90 -284 163 -288 163 -4 0 -19 8 -33 19 -48 33 -586 341 -597 341 -2 0
-7 -4 -10 -10z"/>
<path d="M8690 8499 c0 -149 11 -192 59 -239 20 -20 167 -111 326 -202 160
-91 331 -190 380 -218 50 -29 196 -114 325 -188 465 -268 609 -351 860 -497
140 -81 374 -216 520 -300 285 -163 978 -563 1125 -650 50 -29 122 -70 160
-92 138 -78 810 -466 820 -473 10 -8 132 -78 650 -375 171 -98 400 -231 510
-295 457 -266 491 -281 645 -283 151 -1 200 20 660 289 217 127 457 266 533
309 l139 79 -6 36 c-3 19 -8 83 -12 143 -4 59 -9 107 -12 107 -6 0 -79 -41
-352 -201 -129 -75 -289 -168 -355 -206 -66 -38 -165 -96 -220 -128 -129 -75
-167 -91 -254 -110 -91 -19 -133 -19 -228 1 -110 22 -158 47 -583 296 -237
138 -581 338 -795 460 -110 63 -243 140 -295 170 -294 170 -444 257 -520 298
-47 26 -218 125 -380 220 -304 178 -564 329 -825 477 -82 47 -278 160 -435
251 -157 91 -402 233 -545 315 -252 145 -590 341 -960 555 -99 57 -279 160
-400 230 -398 228 -456 263 -496 304 l-39 40 0 -123z"/>
<path d="M14285 8496 c-33 -18 -95 -52 -137 -75 -53 -29 -84 -40 -98 -36 -12
4 -59 29 -105 56 -100 59 -152 82 -159 70 -9 -13 33 -45 145 -110 58 -34 117
-61 132 -61 48 0 267 122 287 160 17 31 -3 30 -65 -4z"/>
<path d="M14980 8465 c-52 -31 -114 -65 -137 -76 l-42 -19 -36 24 c-61 42
-223 121 -231 113 -4 -4 1 -16 11 -28 22 -24 166 -106 202 -115 13 -4 30 -15
36 -25 12 -19 47 -26 47 -10 0 5 34 26 77 47 90 45 196 121 188 134 -10 16
-15 13 -115 -45z"/>
<path d="M15272 8492 c50 -43 85 -65 176 -112 54 -29 81 -48 78 -57 -3 -7 -4
-13 -2 -13 8 0 181 94 186 101 3 4 18 11 33 14 15 4 30 12 33 17 4 6 -2 7 -17
3 -21 -6 -18 -1 16 34 21 22 36 41 32 41 -5 0 -40 -22 -80 -48 -92 -62 -162
-102 -177 -102 -7 0 -24 8 -38 19 -48 33 -239 131 -256 131 -12 0 -7 -8 16
-28z"/>
<path d="M14595 8244 c-141 -83 -167 -87 -235 -45 -92 57 -169 101 -179 101
-36 0 6 -42 103 -102 92 -57 111 -65 127 -55 14 9 21 9 31 -1 9 -9 8 -12 -5
-12 -9 0 -17 -4 -17 -10 0 -13 37 -13 45 0 4 6 37 26 75 45 75 38 118 65 176
113 36 30 37 32 14 31 -14 0 -74 -29 -135 -65z"/>
<path d="M15448 8296 c-21 -8 -68 -31 -105 -53 -38 -22 -89 -52 -114 -66 l-46
-26 -69 40 c-38 23 -91 54 -118 71 -51 30 -106 47 -105 32 1 -16 58 -55 176
-121 l117 -64 65 32 c104 49 280 170 245 169 -5 -1 -26 -7 -46 -14z"/>
<path d="M6975 8094 c-156 -91 -346 -205 -374 -223 -11 -7 -9 -15 11 -42 14
-19 43 -67 64 -106 l39 -73 55 1 c30 1 74 -4 97 -11 67 -20 71 -15 65 88 -2
51 0 92 5 95 5 3 80 -36 166 -88 87 -52 160 -95 163 -95 3 0 17 -9 31 -20 14
-11 33 -20 43 -20 14 0 18 -13 24 -77 3 -42 6 -92 6 -111 0 -29 11 -45 69
-106 38 -39 81 -86 97 -104 23 -29 32 -33 58 -28 16 4 32 10 36 14 3 4 19 14
35 22 17 8 33 16 36 18 4 1 19 -21 34 -50 23 -44 168 -298 226 -396 37 -64 30
-87 -39 -124 -37 -20 -42 -53 -17 -115 8 -21 23 -71 34 -112 11 -40 26 -79 32
-87 6 -8 47 -35 90 -61 l79 -47 0 -242 0 -242 -40 19 c-21 10 -43 19 -48 19
-5 0 -22 11 -38 25 -16 14 -33 24 -39 22 -13 -5 -95 -168 -95 -189 0 -22 34
-80 81 -141 21 -26 39 -53 41 -59 4 -10 471 253 541 304 17 12 16 18 -32 90
l-50 77 52 34 c29 19 80 49 114 68 36 20 64 42 67 54 5 20 -1 497 -6 499 -15
6 -141 73 -153 82 -8 6 -33 76 -55 155 l-39 144 22 17 c12 10 37 23 55 29 19
6 32 17 32 28 0 9 -19 50 -43 91 -174 301 -208 363 -224 397 -10 21 -19 40
-20 42 -2 2 -27 -12 -58 -32 -30 -21 -59 -37 -65 -37 -6 0 -58 48 -116 107
l-104 107 0 102 0 102 -37 22 c-21 13 -112 65 -203 118 -91 52 -170 99 -177
104 -9 7 -46 -10 -127 -57 -63 -36 -119 -67 -123 -67 -4 0 -26 36 -48 79 -22
43 -47 79 -55 80 -8 0 -87 -41 -175 -93z"/>
<path d="M14535 8066 c48 -39 286 -179 292 -172 4 3 3 6 -2 6 -4 0 -2 7 5 15
7 8 22 15 33 15 22 0 153 68 205 107 30 23 43 53 23 53 -5 0 -48 -22 -94 -49
-120 -69 -210 -108 -215 -93 -5 16 -182 120 -224 132 -51 15 -56 12 -23 -14z"/>
<path d="M14610 7818 c-47 -28 -111 -66 -143 -85 -95 -57 -114 -55 -244 22
-62 37 -117 64 -123 60 -16 -10 -6 -20 68 -68 90 -60 181 -109 192 -102 4 3
10 1 12 -4 3 -10 268 132 315 169 15 11 33 30 40 40 26 36 -26 22 -117 -32z"/>
<path d="M15435 7861 c-6 -5 -39 -25 -76 -44 -36 -20 -85 -47 -110 -61 -24
-14 -50 -26 -57 -26 -7 0 -64 29 -126 65 -109 63 -146 77 -146 55 0 -23 252
-170 258 -151 2 6 16 8 32 4 23 -4 50 6 130 53 55 32 112 70 127 86 l27 28
-25 0 c-14 0 -29 -4 -34 -9z"/>
<path d="M15645 7859 c7 -18 189 -133 234 -148 18 -6 38 -8 45 -4 6 4 6 0 -2
-9 -10 -13 -10 -17 4 -22 10 -4 20 -3 23 2 3 5 55 35 116 66 123 64 144 80
142 107 -1 10 -3 19 -6 19 -2 0 -36 -20 -75 -44 -39 -24 -97 -57 -128 -72
l-57 -28 -43 20 c-24 10 -79 40 -123 66 -87 51 -139 70 -130 47z"/>
<path d="M17142 7839 c5 -15 88 -74 147 -104 20 -11 54 -30 76 -45 23 -14 65
-38 96 -54 l55 -29 82 54 c45 30 77 56 71 58 -6 2 -3 11 8 24 14 16 4 13 -42
-13 -65 -36 -88 -57 -78 -73 3 -6 2 -7 -4 -4 -6 4 -25 2 -43 -3 -38 -11 -60 1
-60 31 0 13 -7 19 -22 19 -27 0 -51 13 -48 26 2 5 -16 19 -39 32 -31 17 -46
20 -55 13 -9 -8 -13 -7 -13 4 0 8 5 12 11 9 6 -3 2 2 -8 10 -11 9 -24 16 -30
16 -5 0 -17 6 -25 14 -24 21 -85 32 -79 15z"/>
<path d="M15060 7647 c-31 -29 -277 -167 -306 -173 -26 -5 -48 4 -130 53 -117
69 -151 85 -159 74 -3 -5 8 -20 23 -33 49 -41 235 -141 261 -141 35 0 292 146
338 192 26 25 0 52 -27 28z"/>
<path d="M15744 7602 c-43 -26 -101 -58 -129 -71 l-50 -24 -37 22 c-20 11 -45
18 -55 15 -14 -5 -15 -4 -4 4 11 8 9 12 -9 22 -20 11 -22 10 -17 -4 4 -10 1
-16 -8 -16 -8 0 -12 6 -9 14 5 14 -49 40 -60 29 -3 -3 -14 0 -23 8 -15 12 -15
10 1 -9 13 -15 26 -20 45 -17 21 4 22 4 6 -3 -21 -10 -28 -5 115 -79 52 -27
73 -29 90 -9 6 8 17 13 24 10 15 -6 38 6 144 75 75 49 102 81 69 81 -8 0 -49
-22 -93 -48z"/>
<path d="M6340 7500 c-25 -15 -78 -46 -117 -69 -75 -43 -90 -61 -50 -61 13 0
47 -16 77 -35 30 -19 61 -35 68 -35 6 0 28 35 48 78 36 76 49 142 29 148 -5 1
-30 -10 -55 -26z"/>
<path d="M18072 7455 c-60 -48 -101 -57 -165 -38 -29 9 -58 16 -64 14 -7 -1
-13 2 -13 7 0 17 13 21 34 11 20 -10 20 -9 2 5 -13 11 -25 12 -43 5 -31 -11
-36 -11 -28 0 3 6 -4 9 -15 8 -11 -1 -20 -4 -20 -7 1 -11 149 -89 182 -95 26
-5 49 -1 84 15 53 24 114 76 114 97 0 21 -22 14 -68 -22z"/>
<path d="M15670 7440 c0 -21 56 -64 164 -126 116 -67 116 -67 201 -28 29 14
21 13 -35 -3 -8 -2 -4 3 10 11 14 8 36 15 48 16 28 0 152 77 152 94 0 19 -17
39 -24 28 -12 -19 -213 -132 -236 -132 -13 0 -78 32 -144 72 -67 39 -124 73
-128 75 -5 2 -8 -1 -8 -7z"/>
<path d="M15435 7431 c-3 -5 -24 -20 -48 -33 -23 -14 -90 -52 -149 -86 -58
-34 -114 -62 -124 -62 -10 0 -55 23 -101 50 -46 28 -88 48 -94 45 -5 -4 -8 -1
-7 5 2 6 -12 17 -29 25 -28 12 -33 12 -33 0 0 -29 215 -165 260 -165 52 0 370
191 370 222 0 11 -37 10 -45 -1z"/>
<path d="M19342 7400 c-12 -20 -77 -65 -182 -126 -30 -17 -138 -80 -240 -139
-102 -59 -275 -159 -385 -223 -258 -148 -582 -339 -617 -363 -15 -11 -37 -19
-49 -19 -12 0 -65 26 -118 59 -227 138 -238 143 -276 131 -18 -6 -35 -14 -37
-18 -2 -4 -59 -40 -128 -81 -69 -41 -147 -88 -175 -104 -99 -60 -93 -58 -194
-41 l-93 16 -82 -49 c-44 -28 -139 -83 -211 -123 -153 -87 -140 -78 -132 -87
10 -10 137 -32 187 -33 83 0 189 35 305 102 142 82 190 112 193 120 8 19 45 3
182 -78 80 -47 213 -125 295 -171 83 -47 170 -98 195 -113 25 -15 65 -39 90
-53 25 -13 120 -69 212 -123 92 -55 189 -111 215 -125 31 -16 54 -37 64 -60
10 -19 53 -109 97 -201 142 -295 262 -476 439 -658 l98 -101 11 -82 c7 -45 18
-172 25 -283 13 -204 6 -392 -22 -564 -34 -214 -125 -456 -229 -610 -20 -30
-44 -68 -53 -85 -17 -33 -70 -90 -168 -179 -76 -69 -76 -69 199 93 246 144
359 245 476 424 205 316 278 733 231 1320 -9 106 -18 200 -21 210 -3 9 -48 61
-101 115 -194 198 -315 386 -496 773 l-54 116 -119 70 c-145 87 -520 300 -537
306 -15 5 -12 8 43 39 25 14 176 101 335 193 160 93 331 192 380 220 416 240
436 254 461 312 15 35 20 293 6 293 -4 0 -13 -9 -20 -20z"/>
<path d="M6867 7199 c-239 -56 -290 -384 -117 -754 88 -187 209 -335 353 -432
103 -69 156 -86 262 -87 103 0 132 11 187 72 54 60 78 123 89 235 l9 97 -97
98 c-54 53 -122 133 -151 177 -95 142 -181 349 -187 449 l-3 50 -76 38 c-70
35 -179 69 -216 67 -8 -1 -32 -5 -53 -10z"/>
<path d="M15267 7132 c2 -10 32 -35 66 -56 34 -21 73 -47 87 -56 46 -32 129
-70 150 -70 38 0 120 66 120 96 0 11 -29 2 -60 -19 -19 -13 -42 -26 -52 -30
-18 -6 -84 25 -195 92 -43 25 -79 41 -88 37 -9 -3 -14 -2 -11 3 3 5 0 11 -8
14 -9 4 -12 0 -9 -11z"/>
<path d="M15675 6891 c-3 -6 16 -22 42 -37 27 -15 72 -43 102 -62 53 -35 142
-72 171 -72 8 0 31 5 51 10 31 9 36 14 37 40 1 32 -17 40 -37 16 -36 -43 -101
-25 -251 68 -73 45 -103 55 -115 37z"/>
<path d="M16090 6655 c0 -16 46 -50 180 -129 71 -42 102 -55 125 -53 43 5 115
53 115 77 0 26 -3 25 -56 -6 -61 -36 -85 -30 -228 55 -66 39 -123 71 -128 71
-4 0 -8 -7 -8 -15z"/>
<path d="M11100 5591 c-36 -12 -146 -68 -215 -110 -60 -36 -69 -41 -163 -96
-29 -16 -52 -32 -52 -35 0 -5 180 -114 280 -171 60 -34 779 -447 900 -517 149
-86 211 -122 260 -150 25 -14 108 -62 185 -106 78 -45 153 -88 168 -96 14 -8
82 -47 149 -87 251 -146 495 -287 568 -328 97 -55 780 -452 800 -465 8 -5 38
-22 65 -36 28 -15 115 -65 195 -112 162 -96 220 -129 365 -212 55 -31 195
-112 310 -180 116 -67 215 -123 221 -123 21 -1 369 207 402 239 43 43 40 95
-7 131 -17 14 -339 201 -706 413 -126 72 -259 149 -295 170 -36 21 -155 89
-265 152 -110 63 -267 155 -350 203 -82 49 -217 127 -300 173 -82 46 -197 112
-255 146 -144 86 -369 216 -805 466 -203 117 -395 227 -425 245 -30 18 -174
101 -320 185 -146 84 -296 172 -335 195 -134 80 -203 108 -280 111 -38 2 -81
0 -95 -5z"/>
<path d="M7357 5398 c3 -51 7 -95 9 -97 9 -10 235 140 231 153 -4 11 -139 34
-209 35 l-37 1 6 -92z"/>
<path d="M16980 3695 c0 -36 446 -725 469 -725 4 0 15 -16 25 -35 11 -19 23
-35 27 -35 7 0 -25 57 -50 86 -4 6 -26 37 -47 70 -21 32 -41 61 -44 64 -9 9
-143 206 -165 242 -5 9 -25 41 -42 71 -18 29 -53 85 -78 123 -25 38 -51 77
-58 87 -7 10 -11 22 -10 25 0 4 -5 13 -13 20 -8 7 -14 10 -14 7z"/>
</g>
</svg>
